<mxfile host="app.diagrams.net" modified="2022-02-08T17:22:42.740Z" agent="5.0 (Macintosh; Intel Mac OS X 10_15_7) AppleWebKit/605.1.15 (KHTML, like Gecko) Version/13.1.3 Safari/605.1.15" etag="nprduSn0vysc_tUjforY" version="16.5.4" type="github">
  <diagram id="aWT0DO6NEqe1KrQBJNWQ" name="Page-1">
    <mxGraphModel dx="1186" dy="812" grid="1" gridSize="10" guides="1" tooltips="1" connect="1" arrows="1" fold="1" page="1" pageScale="1" pageWidth="827" pageHeight="1169" math="0" shadow="0">
      <root>
        <mxCell id="0" />
        <mxCell id="1" parent="0" />
        <mxCell id="piQ0pNW8FSRzQy8db6SX-44" value="" style="endArrow=none;html=1;rounded=0;" parent="1" edge="1">
          <mxGeometry width="50" height="50" relative="1" as="geometry">
            <mxPoint x="80" y="1480" as="sourcePoint" />
            <mxPoint x="80" y="40" as="targetPoint" />
          </mxGeometry>
        </mxCell>
        <mxCell id="piQ0pNW8FSRzQy8db6SX-45" value="" style="endArrow=none;html=1;rounded=0;" parent="1" edge="1">
          <mxGeometry width="50" height="50" relative="1" as="geometry">
            <mxPoint x="80" y="1480.0033333333336" as="sourcePoint" />
            <mxPoint x="1080" y="1480" as="targetPoint" />
          </mxGeometry>
        </mxCell>
        <mxCell id="piQ0pNW8FSRzQy8db6SX-47" value="" style="endArrow=none;html=1;rounded=0;" parent="1" edge="1">
          <mxGeometry width="50" height="50" relative="1" as="geometry">
            <mxPoint x="1080" y="1482" as="sourcePoint" />
            <mxPoint x="1080" y="40" as="targetPoint" />
          </mxGeometry>
        </mxCell>
        <mxCell id="piQ0pNW8FSRzQy8db6SX-48" value="" style="endArrow=none;html=1;rounded=0;" parent="1" edge="1">
          <mxGeometry width="50" height="50" relative="1" as="geometry">
            <mxPoint x="80" y="40.00333333333356" as="sourcePoint" />
            <mxPoint x="1080" y="40" as="targetPoint" />
          </mxGeometry>
        </mxCell>
        <mxCell id="piQ0pNW8FSRzQy8db6SX-49" value="Web Transport Booking Experience API" style="whiteSpace=wrap;html=1;aspect=fixed;fillColor=#fa6800;fontColor=#000000;strokeColor=#C73500;" parent="1" vertex="1">
          <mxGeometry x="120" y="80" width="120" height="120" as="geometry" />
        </mxCell>
        <mxCell id="piQ0pNW8FSRzQy8db6SX-50" value="Get Routes and Schedules Process API" style="whiteSpace=wrap;html=1;aspect=fixed;fillColor=#1ba1e2;fontColor=#ffffff;strokeColor=#006EAF;" parent="1" vertex="1">
          <mxGeometry x="280" y="80" width="120" height="120" as="geometry" />
        </mxCell>
        <mxCell id="piQ0pNW8FSRzQy8db6SX-51" value="&quot;Travel Tip&quot; Booking System" style="whiteSpace=wrap;html=1;aspect=fixed;fillColor=#ffff88;strokeColor=#36393d;" parent="1" vertex="1">
          <mxGeometry x="760" y="80" width="120" height="120" as="geometry" />
        </mxCell>
        <mxCell id="piQ0pNW8FSRzQy8db6SX-52" value="&lt;span&gt;&quot;Fast Go&quot; Booking System&lt;/span&gt;" style="whiteSpace=wrap;html=1;aspect=fixed;fillColor=#ffcc99;strokeColor=#36393d;" parent="1" vertex="1">
          <mxGeometry x="920" y="80" width="120" height="120" as="geometry" />
        </mxCell>
        <mxCell id="piQ0pNW8FSRzQy8db6SX-53" value="&lt;span&gt;&quot;Fast Go&quot; Routes and Schedules System API&amp;nbsp;&lt;/span&gt;" style="whiteSpace=wrap;html=1;aspect=fixed;fillColor=#d5e8d4;strokeColor=#82b366;" parent="1" vertex="1">
          <mxGeometry x="600" y="80" width="120" height="120" as="geometry" />
        </mxCell>
        <mxCell id="piQ0pNW8FSRzQy8db6SX-54" value="&quot;Travel Tip&quot; Routes and Schedules System API&amp;nbsp;" style="whiteSpace=wrap;html=1;aspect=fixed;fillColor=#f8cecc;strokeColor=#b85450;" parent="1" vertex="1">
          <mxGeometry x="440" y="80" width="120" height="120" as="geometry" />
        </mxCell>
        <mxCell id="piQ0pNW8FSRzQy8db6SX-55" value="" style="endArrow=none;dashed=1;html=1;dashPattern=1 3;strokeWidth=2;rounded=0;" parent="1" edge="1">
          <mxGeometry width="50" height="50" relative="1" as="geometry">
            <mxPoint x="180" y="1480" as="sourcePoint" />
            <mxPoint x="179.5" y="200" as="targetPoint" />
            <Array as="points">
              <mxPoint x="179.5" y="240" />
            </Array>
          </mxGeometry>
        </mxCell>
        <mxCell id="piQ0pNW8FSRzQy8db6SX-56" value="" style="endArrow=none;dashed=1;html=1;dashPattern=1 3;strokeWidth=2;rounded=0;" parent="1" edge="1">
          <mxGeometry width="50" height="50" relative="1" as="geometry">
            <mxPoint x="350" y="1490" as="sourcePoint" />
            <mxPoint x="339.5" y="210" as="targetPoint" />
            <Array as="points">
              <mxPoint x="339.5" y="250" />
            </Array>
          </mxGeometry>
        </mxCell>
        <mxCell id="piQ0pNW8FSRzQy8db6SX-57" value="" style="endArrow=none;dashed=1;html=1;dashPattern=1 3;strokeWidth=2;rounded=0;" parent="1" edge="1">
          <mxGeometry width="50" height="50" relative="1" as="geometry">
            <mxPoint x="500" y="1480" as="sourcePoint" />
            <mxPoint x="499.5" y="200" as="targetPoint" />
            <Array as="points">
              <mxPoint x="499.5" y="240" />
            </Array>
          </mxGeometry>
        </mxCell>
        <mxCell id="piQ0pNW8FSRzQy8db6SX-58" value="" style="endArrow=none;dashed=1;html=1;dashPattern=1 3;strokeWidth=2;rounded=0;" parent="1" edge="1">
          <mxGeometry width="50" height="50" relative="1" as="geometry">
            <mxPoint x="660" y="1480" as="sourcePoint" />
            <mxPoint x="659.5" y="200" as="targetPoint" />
            <Array as="points">
              <mxPoint x="659.5" y="240" />
            </Array>
          </mxGeometry>
        </mxCell>
        <mxCell id="piQ0pNW8FSRzQy8db6SX-59" value="" style="endArrow=none;dashed=1;html=1;dashPattern=1 3;strokeWidth=2;rounded=0;" parent="1" edge="1">
          <mxGeometry width="50" height="50" relative="1" as="geometry">
            <mxPoint x="820" y="1480" as="sourcePoint" />
            <mxPoint x="819.5" y="200" as="targetPoint" />
            <Array as="points">
              <mxPoint x="819.5" y="240" />
            </Array>
          </mxGeometry>
        </mxCell>
        <mxCell id="piQ0pNW8FSRzQy8db6SX-60" value="" style="endArrow=none;dashed=1;html=1;dashPattern=1 3;strokeWidth=2;rounded=0;" parent="1" edge="1">
          <mxGeometry width="50" height="50" relative="1" as="geometry">
            <mxPoint x="980" y="1480" as="sourcePoint" />
            <mxPoint x="979.5" y="200" as="targetPoint" />
            <Array as="points">
              <mxPoint x="979.5" y="240" />
            </Array>
          </mxGeometry>
        </mxCell>
        <mxCell id="piQ0pNW8FSRzQy8db6SX-61" value="" style="endArrow=classic;html=1;rounded=0;fillColor=#fa6800;strokeColor=#C73500;" parent="1" edge="1">
          <mxGeometry relative="1" as="geometry">
            <mxPoint x="180" y="240" as="sourcePoint" />
            <mxPoint x="330" y="240" as="targetPoint" />
          </mxGeometry>
        </mxCell>
        <mxCell id="piQ0pNW8FSRzQy8db6SX-63" value="" style="endArrow=classic;html=1;rounded=0;fillColor=#f8cecc;strokeColor=#b85450;" parent="1" edge="1">
          <mxGeometry relative="1" as="geometry">
            <mxPoint x="820" y="320" as="sourcePoint" />
            <mxPoint x="500" y="320" as="targetPoint" />
          </mxGeometry>
        </mxCell>
        <mxCell id="piQ0pNW8FSRzQy8db6SX-65" value="" style="endArrow=classic;html=1;rounded=0;fillColor=#f8cecc;strokeColor=#b85450;" parent="1" edge="1">
          <mxGeometry relative="1" as="geometry">
            <mxPoint x="500" y="240" as="sourcePoint" />
            <mxPoint x="820" y="240" as="targetPoint" />
          </mxGeometry>
        </mxCell>
        <mxCell id="piQ0pNW8FSRzQy8db6SX-67" value="" style="endArrow=classic;html=1;rounded=0;fillColor=#1ba1e2;strokeColor=#006EAF;" parent="1" edge="1">
          <mxGeometry relative="1" as="geometry">
            <mxPoint x="339.5" y="640" as="sourcePoint" />
            <mxPoint x="660.5" y="640" as="targetPoint" />
            <Array as="points" />
          </mxGeometry>
        </mxCell>
        <mxCell id="piQ0pNW8FSRzQy8db6SX-69" value="" style="endArrow=classic;html=1;rounded=0;fillColor=#1ba1e2;strokeColor=#006EAF;" parent="1" edge="1">
          <mxGeometry relative="1" as="geometry">
            <mxPoint x="500" y="560" as="sourcePoint" />
            <mxPoint x="340" y="560" as="targetPoint" />
            <Array as="points">
              <mxPoint x="410" y="560" />
            </Array>
          </mxGeometry>
        </mxCell>
        <mxCell id="piQ0pNW8FSRzQy8db6SX-71" value="" style="endArrow=classic;html=1;rounded=0;fillColor=#fa6800;strokeColor=#C73500;" parent="1" edge="1">
          <mxGeometry relative="1" as="geometry">
            <mxPoint x="344" y="1120" as="sourcePoint" />
            <mxPoint x="185" y="1120" as="targetPoint" />
          </mxGeometry>
        </mxCell>
        <mxCell id="piQ0pNW8FSRzQy8db6SX-73" value="" style="endArrow=classic;html=1;rounded=0;fillColor=#1ba1e2;strokeColor=#006EAF;" parent="1" edge="1">
          <mxGeometry relative="1" as="geometry">
            <mxPoint x="340" y="480" as="sourcePoint" />
            <mxPoint x="501" y="480" as="targetPoint" />
          </mxGeometry>
        </mxCell>
        <mxCell id="piQ0pNW8FSRzQy8db6SX-75" value="" style="endArrow=classic;html=1;rounded=0;fillColor=#1ba1e2;strokeColor=#006EAF;" parent="1" edge="1">
          <mxGeometry relative="1" as="geometry">
            <mxPoint x="659.75" y="760" as="sourcePoint" />
            <mxPoint x="340.25" y="760" as="targetPoint" />
          </mxGeometry>
        </mxCell>
        <mxCell id="piQ0pNW8FSRzQy8db6SX-77" value="" style="endArrow=classic;html=1;rounded=0;fillColor=#d5e8d4;strokeColor=#82b366;" parent="1" edge="1">
          <mxGeometry relative="1" as="geometry">
            <mxPoint x="660" y="440" as="sourcePoint" />
            <mxPoint x="980" y="440" as="targetPoint" />
          </mxGeometry>
        </mxCell>
        <mxCell id="piQ0pNW8FSRzQy8db6SX-81" value="" style="endArrow=classic;html=1;rounded=0;fillColor=#d5e8d4;strokeColor=#82b366;" parent="1" edge="1">
          <mxGeometry relative="1" as="geometry">
            <mxPoint x="979.75" y="560" as="sourcePoint" />
            <mxPoint x="660.25" y="560" as="targetPoint" />
          </mxGeometry>
        </mxCell>
        <mxCell id="piQ0pNW8FSRzQy8db6SX-84" value="&lt;div style=&quot;line-height: 1.17&quot;&gt;Consolidate&amp;nbsp;Schedules&amp;nbsp;Request&lt;/div&gt;" style="text;html=1;align=center;verticalAlign=middle;resizable=0;points=[];autosize=1;strokeColor=none;fillColor=none;" parent="1" vertex="1">
          <mxGeometry x="165" y="220" width="190" height="20" as="geometry" />
        </mxCell>
        <mxCell id="piQ0pNW8FSRzQy8db6SX-88" value="&lt;span&gt;Check &quot;Cache&quot; for transport providers.&lt;/span&gt;" style="strokeWidth=2;html=1;shape=mxgraph.flowchart.multi-document;whiteSpace=wrap;align=center;fillColor=#fff2cc;strokeColor=#d6b656;" parent="1" vertex="1">
          <mxGeometry x="136" y="270" width="104" height="100" as="geometry" />
        </mxCell>
        <mxCell id="piQ0pNW8FSRzQy8db6SX-89" value="No Dependencies to ... code from transport providers.&amp;nbsp;" style="strokeWidth=2;html=1;shape=mxgraph.flowchart.multi-document;whiteSpace=wrap;align=center;fillColor=#fff2cc;strokeColor=#d6b656;" parent="1" vertex="1">
          <mxGeometry x="288" y="270" width="104" height="110" as="geometry" />
        </mxCell>
        <mxCell id="piQ0pNW8FSRzQy8db6SX-90" value="Request" style="text;html=1;align=center;verticalAlign=middle;resizable=0;points=[];autosize=1;strokeColor=none;fillColor=none;" parent="1" vertex="1">
          <mxGeometry x="392" y="460" width="60" height="20" as="geometry" />
        </mxCell>
        <mxCell id="piQ0pNW8FSRzQy8db6SX-91" value="Schedules&amp;nbsp;lists" style="text;html=1;align=center;verticalAlign=middle;resizable=0;points=[];autosize=1;strokeColor=none;fillColor=none;" parent="1" vertex="1">
          <mxGeometry x="372" y="480" width="100" height="20" as="geometry" />
        </mxCell>
        <mxCell id="piQ0pNW8FSRzQy8db6SX-92" value="List of Routes provided" style="text;html=1;align=center;verticalAlign=middle;resizable=0;points=[];autosize=1;strokeColor=none;fillColor=none;" parent="1" vertex="1">
          <mxGeometry x="350" y="540" width="140" height="20" as="geometry" />
        </mxCell>
        <mxCell id="piQ0pNW8FSRzQy8db6SX-93" value="Request&amp;nbsp;Schedules&amp;nbsp;List" style="text;html=1;align=center;verticalAlign=middle;resizable=0;points=[];autosize=1;strokeColor=none;fillColor=none;" parent="1" vertex="1">
          <mxGeometry x="420" y="620" width="140" height="20" as="geometry" />
        </mxCell>
        <mxCell id="piQ0pNW8FSRzQy8db6SX-94" value="List of&amp;nbsp;Schedules&amp;nbsp;Provided" style="text;html=1;align=center;verticalAlign=middle;resizable=0;points=[];autosize=1;strokeColor=none;fillColor=none;" parent="1" vertex="1">
          <mxGeometry x="410" y="740" width="160" height="20" as="geometry" />
        </mxCell>
        <mxCell id="piQ0pNW8FSRzQy8db6SX-95" value="getSchedules Request" style="text;html=1;align=center;verticalAlign=middle;resizable=0;points=[];autosize=1;strokeColor=none;fillColor=none;" parent="1" vertex="1">
          <mxGeometry x="590" y="220" width="140" height="20" as="geometry" />
        </mxCell>
        <mxCell id="piQ0pNW8FSRzQy8db6SX-96" value="getSchedules&amp;nbsp;Response" style="text;html=1;align=center;verticalAlign=middle;resizable=0;points=[];autosize=1;strokeColor=none;fillColor=none;" parent="1" vertex="1">
          <mxGeometry x="585" y="300" width="150" height="20" as="geometry" />
        </mxCell>
        <mxCell id="piQ0pNW8FSRzQy8db6SX-97" value="Fetch&amp;nbsp;Schedules&amp;nbsp;Request" style="text;html=1;align=center;verticalAlign=middle;resizable=0;points=[];autosize=1;strokeColor=none;fillColor=none;" parent="1" vertex="1">
          <mxGeometry x="745" y="420" width="150" height="20" as="geometry" />
        </mxCell>
        <mxCell id="piQ0pNW8FSRzQy8db6SX-98" value="Fetch&amp;nbsp;Schedules&amp;nbsp;Response" style="text;html=1;align=center;verticalAlign=middle;resizable=0;points=[];autosize=1;strokeColor=none;fillColor=none;" parent="1" vertex="1">
          <mxGeometry x="745" y="540" width="160" height="20" as="geometry" />
        </mxCell>
        <mxCell id="piQ0pNW8FSRzQy8db6SX-103" value="" style="curved=1;endArrow=classic;html=1;rounded=0;" parent="1" edge="1">
          <mxGeometry width="50" height="50" relative="1" as="geometry">
            <mxPoint x="350" y="950" as="sourcePoint" />
            <mxPoint x="350" y="1000" as="targetPoint" />
            <Array as="points">
              <mxPoint x="370" y="950" />
              <mxPoint x="420" y="970" />
              <mxPoint x="400" y="1000" />
            </Array>
          </mxGeometry>
        </mxCell>
        <mxCell id="piQ0pNW8FSRzQy8db6SX-104" value="Map Transport provider location code for common location (Retrieve mapping from properties file) then apply filter." style="shape=callout;whiteSpace=wrap;html=1;perimeter=calloutPerimeter;align=center;fillColor=#fff2cc;strokeColor=#d6b656;" parent="1" vertex="1">
          <mxGeometry x="250" y="800" width="190" height="120" as="geometry" />
        </mxCell>
        <mxCell id="piQ0pNW8FSRzQy8db6SX-105" value="Consolidate&amp;nbsp;Schedules&amp;nbsp;Reply" style="text;html=1;align=center;verticalAlign=middle;resizable=0;points=[];autosize=1;strokeColor=none;fillColor=none;" parent="1" vertex="1">
          <mxGeometry x="180" y="1100" width="170" height="20" as="geometry" />
        </mxCell>
      </root>
    </mxGraphModel>
  </diagram>
</mxfile>
